<svg width="18" height="14" viewBox="0 0 18 14" fill="none" xmlns="http://www.w3.org/2000/svg">
<path d="M17.1164 6.21818C15.4636 2.38091 12.3546 0 9.00001 0C5.64546 0 2.53637 2.38091 0.883644 6.21818C0.838592 6.32141 0.815338 6.43282 0.815338 6.54545C0.815338 6.65808 0.838592 6.7695 0.883644 6.87273C2.53637 10.71 5.64546 13.0909 9.00001 13.0909C12.3546 13.0909 15.4636 10.71 17.1164 6.87273C17.1614 6.7695 17.1847 6.65808 17.1847 6.54545C17.1847 6.43282 17.1614 6.32141 17.1164 6.21818V6.21818ZM9.00001 11.4545C6.40637 11.4545 3.95183 9.58091 2.53637 6.54545C3.95183 3.51 6.40637 1.63636 9.00001 1.63636C11.5936 1.63636 14.0482 3.51 15.4636 6.54545C14.0482 9.58091 11.5936 11.4545 9.00001 11.4545ZM9.00001 3.27273C8.35272 3.27273 7.71998 3.46467 7.18178 3.82428C6.64358 4.18389 6.22411 4.69502 5.9764 5.29304C5.7287 5.89105 5.66389 6.54908 5.79016 7.18393C5.91644 7.81878 6.22814 8.40192 6.68584 8.85962C7.14354 9.31732 7.72668 9.62902 8.36153 9.7553C8.99638 9.88158 9.65441 9.81677 10.2524 9.56906C10.8504 9.32136 11.3616 8.90188 11.7212 8.36368C12.0808 7.82549 12.2727 7.19274 12.2727 6.54545C12.2727 5.67747 11.9279 4.84504 11.3142 4.23129C10.7004 3.61753 9.86799 3.27273 9.00001 3.27273V3.27273ZM9.00001 8.18182C8.67637 8.18182 8.35999 8.08585 8.09089 7.90604C7.82179 7.72624 7.61206 7.47067 7.4882 7.17166C7.36435 6.87266 7.33195 6.54364 7.39509 6.22622C7.45823 5.90879 7.61407 5.61722 7.84292 5.38837C8.07177 5.15952 8.36335 5.00367 8.68077 4.94053C8.99819 4.87739 9.32721 4.9098 9.62622 5.03365C9.92522 5.1575 10.1808 5.36724 10.3606 5.63634C10.5404 5.90544 10.6364 6.22181 10.6364 6.54545C10.6364 6.97945 10.464 7.39566 10.1571 7.70254C9.85021 8.00942 9.434 8.18182 9.00001 8.18182Z" fill="#BBBFBF"/>
</svg>
