<svg width="17" height="17" viewBox="0 0 17 17" fill="none" xmlns="http://www.w3.org/2000/svg">
<path d="M7.54658 3.44595C7.84253 3.40059 8.14154 3.37802 8.44095 3.37845C11.1241 3.37845 13.6469 5.31064 15.115 8.44095C14.8905 8.91733 14.6369 9.37945 14.3556 9.8247C14.2664 9.96292 14.2194 10.1242 14.2206 10.2888C14.2225 10.4729 14.2846 10.6514 14.3974 10.7969C14.5102 10.9425 14.6675 11.0472 14.8453 11.095C15.0231 11.1428 15.2117 11.1311 15.3823 11.0617C15.5529 10.9923 15.6961 10.869 15.79 10.7106C16.1831 10.093 16.5246 9.44388 16.811 8.77001C16.8562 8.66473 16.8796 8.55133 16.8796 8.43673C16.8796 8.32213 16.8562 8.20873 16.811 8.10345C15.1066 4.14627 11.9003 1.69095 8.44095 1.69095C8.04495 1.68896 7.64959 1.72285 7.2597 1.7922C7.1489 1.81104 7.04289 1.85152 6.94773 1.91132C6.85257 1.97113 6.77012 2.04909 6.70509 2.14076C6.64006 2.23243 6.59372 2.33601 6.56873 2.44558C6.54373 2.55516 6.54055 2.66859 6.55939 2.77939C6.57823 2.89019 6.6187 2.9962 6.67851 3.09136C6.73831 3.18652 6.81628 3.26897 6.90794 3.334C6.99961 3.39903 7.10319 3.44537 7.21277 3.47037C7.32235 3.49537 7.43577 3.49854 7.54658 3.4797V3.44595ZM1.44626 0.24814C1.36759 0.16947 1.2742 0.107065 1.17141 0.0644894C1.06863 0.0219135 0.958458 0 0.847202 0C0.735946 0 0.625779 0.0219135 0.522992 0.0644894C0.420205 0.107065 0.32681 0.16947 0.24814 0.24814C0.0892585 0.407021 0 0.62251 0 0.847202C0 1.07189 0.0892585 1.28738 0.24814 1.44626L2.86376 4.05345C1.67034 5.20224 0.720519 6.57963 0.0709522 8.10345C0.0244926 8.20991 0.000511967 8.3248 0.000511967 8.44095C0.000511967 8.5571 0.0244926 8.672 0.0709522 8.77845C1.77533 12.7356 4.98158 15.191 8.44095 15.191C9.95726 15.1805 11.4378 14.729 12.7019 13.8916L15.4356 16.6338C15.5141 16.7128 15.6074 16.7756 15.7102 16.8185C15.813 16.8613 15.9233 16.8833 16.0347 16.8833C16.1461 16.8833 16.2564 16.8613 16.3592 16.8185C16.462 16.7756 16.5553 16.7128 16.6338 16.6338C16.7128 16.5553 16.7756 16.462 16.8185 16.3592C16.8613 16.2564 16.8833 16.1461 16.8833 16.0347C16.8833 15.9233 16.8613 15.813 16.8185 15.7102C16.7756 15.6074 16.7128 15.5141 16.6338 15.4356L1.44626 0.24814ZM6.81251 8.0022L8.8797 10.0694C8.7371 10.1103 8.58929 10.1302 8.44095 10.1285C7.9934 10.1285 7.56418 9.95066 7.24771 9.63419C6.93124 9.31773 6.75345 8.8885 6.75345 8.44095C6.75172 8.29261 6.77162 8.14481 6.81251 8.0022ZM8.44095 13.5035C5.75783 13.5035 3.23501 11.5713 1.77533 8.44095C2.32046 7.23755 3.09417 6.1515 4.05345 5.24314L5.54689 6.75345C5.1961 7.39369 5.06236 8.13041 5.16573 8.85309C5.26911 9.57577 5.60403 10.2454 6.12024 10.7617C6.63646 11.2779 7.30613 11.6128 8.02882 11.7162C8.7515 11.8195 9.48822 11.6858 10.1285 11.335L11.47 12.6597C10.5512 13.2004 9.50697 13.4913 8.44095 13.5035Z" fill="#BBBFBF"/>
</svg>
