<svg width="24" height="24" viewBox="0 0 24 24" fill="none" xmlns="http://www.w3.org/2000/svg">
<path d="M8.49151 12.7642L14.1515 18.4142C14.2445 18.5079 14.3551 18.5823 14.4769 18.6331C14.5988 18.6838 14.7295 18.71 14.8615 18.71C14.9935 18.71 15.1242 18.6838 15.2461 18.6331C15.3679 18.5823 15.4785 18.5079 15.5715 18.4142C15.7578 18.2268 15.8623 17.9733 15.8623 17.7092C15.8623 17.445 15.7578 17.1915 15.5715 17.0042L10.6215 12.0042L15.5715 7.05416C15.7578 6.8668 15.8623 6.61335 15.8623 6.34916C15.8623 6.08498 15.7578 5.83153 15.5715 5.64416C15.4789 5.54967 15.3685 5.4745 15.2466 5.42301C15.1247 5.37151 14.9938 5.34471 14.8615 5.34416C14.7292 5.34471 14.5983 5.37151 14.4764 5.42301C14.3546 5.4745 14.2441 5.54967 14.1515 5.64416L8.49151 11.2942C8.39001 11.3878 8.309 11.5015 8.25359 11.628C8.19818 11.7545 8.16958 11.8911 8.16958 12.0292C8.16958 12.1673 8.19818 12.3039 8.25359 12.4304C8.309 12.5569 8.39001 12.6705 8.49151 12.7642V12.7642Z" fill="#3E4242"/>
</svg>
